#VRML V2.0 utf8
# GP1S094HCZ0F simplified body, dimensions per Sharp D3-A00601FEN
Group { children [
  Transform { translation 0.0000 0.0000 0.3346 children [
    Shape { appearance Appearance { material Material { diffuseColor 0.15 0.15 0.15 shininess 0.1 } }
      geometry Box { size 2.1654 1.0236 0.6693 } } ] }
  Transform { translation -0.8366 0.0000 1.2795 children [
    Shape { appearance Appearance { material Material { diffuseColor 0.15 0.15 0.15 shininess 0.1 } }
      geometry Box { size 0.4921 1.0236 1.2205 } } ] }
  Transform { translation 0.8366 0.0000 1.2795 children [
    Shape { appearance Appearance { material Material { diffuseColor 0.15 0.15 0.15 shininess 0.1 } }
      geometry Box { size 0.4921 1.0236 1.2205 } } ] }
] }
