999
MC3_COL_MAIN_V1.0 board outline. Geometry per vault Main-Board-01 Layout Constraints:
999
d=64 mm disc, 22x22 mm square beam-path cutout, both centred on the beam axis at (0,0). mm.
999
Stand-in drawn from the vault numbers (2026-08-22); to be replaced by an export from the assembly CAD.
999
Inside-corner radius of the cutout is unspecified in the vault; drawn sharp. The fab will impose one.
0
SECTION
2
HEADER
9
$ACADVER
1
AC1009
9
$INSUNITS
70
4
9
$EXTMIN
10
-32.0
20
-32.0
30
0.0
9
$EXTMAX
10
32.0
20
32.0
30
0.0
0
ENDSEC
0
SECTION
2
TABLES
0
TABLE
2
LAYER
70
1
0
LAYER
2
0
70
0
62
7
6
CONTINUOUS
0
ENDTAB
0
ENDSEC
0
SECTION
2
ENTITIES
0
CIRCLE
8
0
10
0.0
20
0.0
30
0.0
40
32.0
0
LINE
8
0
10
-11.0
20
-11.0
30
0.0
11
11.0
21
-11.0
31
0.0
0
LINE
8
0
10
11.0
20
-11.0
30
0.0
11
11.0
21
11.0
31
0.0
0
LINE
8
0
10
11.0
20
11.0
30
0.0
11
-11.0
21
11.0
31
0.0
0
LINE
8
0
10
-11.0
20
11.0
30
0.0
11
-11.0
21
-11.0
31
0.0
0
ENDSEC
0
EOF
